# AST/ASF file generated using VICON BodyLanguage
# -----------------------------------------------
:version 1.10
:name VICON
:units
  mass 1.0
  length 0.45
  angle deg
:documentation
   .ast/.asf automatically generated from VICON data using
   VICON BodyBuilder and BodyLanguage model FoxedUp or BRILLIANT.MOD
:root
   order TX TY TZ RX RY RZ
   axis XYZ
   position 0 0 0  
   orientation 0 0 0 
:bonedata
  begin
     id 1 
     name lhipjoint
     direction 0.440178 -0.822639 0.359871 
     length 2.53113 
     axis 0 0 0  XYZ
  end
  begin
     id 2 
     name lfemur
     direction 0.34202 -0.939693 0  
     length 7.88132  
     axis 0 0 20  XYZ
    dof rx ry rz
    limits (-160.0 20.0)
           (-70.0 70.0)
           (-60.0 70.0)
  end
  begin
     id 3 
     name ltibia
     direction 0.34202 -0.939693 0   
     length 8.43783   
     axis 0 0 20   XYZ
    dof rx
    limits (-10.0 170.0)
  end
  begin
     id 4 
     name lfoot
     direction 0.0886351 -0.243523 0.965837   
     length 2.63414   
     axis -90 7.62852e-016 20   XYZ
    dof rx rz
    limits (-45.0 90.0)
           (-70.0 20.0)
  end
  begin
     id 5 
     name ltoes
     direction 1.53703e-011 -4.21717e-011 1   
     length 1.31427   
     axis -90 7.62852e-016 20   XYZ
    dof rx
    limits (-90.0 20.0)
  end
  begin
     id 6 
     name rhipjoint
     direction -0.399779 -0.839773 0.367367   
     length 2.47948  
     axis 0 0 0  XYZ 
  end
  begin
     id 7 
     name rfemur
     direction -0.34202 -0.939693 0   
     length 7.74806   
     axis 0 0 -20   XYZ
    dof rx ry rz
    limits (-160.0 20.0)
           (-70.0 70.0)
           (-70.0 60.0)
  end
  begin
     id 8 
     name rtibia
     direction -0.34202 -0.939693 0   
     length 8.74432   
     axis 0 0 -20   XYZ
    dof rx
    limits (-10.0 170.0)
 end
 begin
     id 9 
     name rfoot
     direction -0.108514 -0.298139 0.948334   
     length 2.66102  
     axis -90 -7.62852e-016 -20   XYZ
    dof rx rz
    limits (-45.0 90.0)
           (-20.0 70.0)
  end
  begin
     id 10 
     name rtoes
     direction -1.53392e-011 -4.22077e-011 1   
     length 1.31983   
     axis -90 -7.62852e-016 -20   XYZ
    dof rx
    limits (-90.0 20.0)
  end
  begin
     id 11 
     name lowerback
     direction 0.0113257 0.999866 0.0118602   
     length 2.58694   
     axis 0 0 0   XYZ
    dof rx ry rz
    limits (-20.0 45.0)
           (-30.0 30.0)
           (-30.0 30.0)
  end
  begin
     id 12 
     name upperback
     direction -0.0164747 0.995193 -0.0965375   
     length 2.52368   
     axis 0 0 0   XYZ
    dof rx ry rz
    limits (-20.0 45.0)
           (-30.0 30.0)
           (-30.0 30.0)
  end
  begin
     id 13 
     name thorax
     direction -0.0194301 0.99433 -0.104552   
     length 2.56099   
     axis 0 0 0   XYZ
    dof rx ry rz
    limits (-20.0 45.0)
           (-30.0 30.0)
           (-30.0 30.0)
  end
  begin
     id 14 
     name lowerneck
     direction 0.0148543 0.995587 -0.092657   
     length 1.71582   
     axis 0 0 0   XYZ
    dof rx ry rz
    limits (-20.0 45.0)
           (-30.0 30.0)
           (-30.0 30.0)
  end
  begin
     id 15 
     name upperneck
     direction -0.0135467 0.993656 -0.111639   
     length 1.68937   
     axis 0 0 0   XYZ
    dof rx ry rz
    limits (-20.0 45.0)
           (-30.0 30.0)
           (-30.0 30.0)
  end
  begin
     id 16
     name head
     direction -0.00615349 0.999547 -0.029448  
     length 1.7462  
     axis 0 0 0   XYZ
    dof rx ry rz
    limits (-20.0 45.0)
           (-30.0 30.0)
           (-30.0 30.0)
  end
  begin
     id 17 
     name lclavicle
     direction 0.988267 0.149885 0.0293713  
     length 4.47222  
     axis 0 0 0   XYZ
    dof ry rz
    limits (-20.0 10.0)
           (0.0 20.0)
  end
  begin
     id 18 
     name lhumerus
     direction 1 -4.48986e-011 -1.14833e-027   
     length 5.37148   
     axis 180 -30 -90   XYZ
    dof rx ry rz
    limits (-60.0 90.0)
           (-90.0 90.0)
           (-90.0 90.0)
  end
  begin
     id 19
     name lradius
     direction 0.999998 0.00170963 -0.000987055   
     length 3.94212   
     axis 180 -30 -90   XYZ
    dof rx
    limits (-10.0 170.0)
  end
  begin
     id 20
     name lwrist
     direction 0.999998 7.53149e-005 -0.00194706   
     length 1.97106   
     axis 4.65056e-015 90 90   XYZ
    dof ry
    limits (-180.0 0.0)
 end
  begin
     id 21 
     name lhand
     direction 1 -4.48973e-011 -1.31746e-026   
     length 1.17917   
     axis 8.4065e-015 90 90   XYZ
    dof rx rz
    limits (-90.0 90.0)
           (-45.0 45.0)
  end
  begin
     id 22 
     name lfingers
     direction 1 -4.49107e-011 -2.63492e-026   
     length 0.950679   
     axis 1.6813e-014 90 90   XYZ
    dof rx
    limits (0.0 90.0)
  end
  begin
     id 23
     name lthumb
     direction 0.707107 -6.35048e-011 0.707107   
     length 1.36499   
     axis -90 45 2.85299e-015   XYZ
    dof rx rz
    limits (-45.0 45.0)
           (-45.0 45.0)
  end
  begin
     id 24 
     name rclavicle
     direction -0.996699 0.0642895 -0.0495725   
     length 4.62611  
     axis 0 0 0   XYZ 
    dof ry rz
    limits (-10.0 20.0)
           (-20.0 0.0)
  end
  begin
     id 25 
     name rhumerus
     direction -1 -4.48919e-011 -2.41059e-027  
     length 5.4981   
     axis 180 30 90   XYZ
    dof rx ry rz
    limits (-90.0 60.0)
           (-90.0 90.0)
           (-90.0 90.0)
  end
  begin
     id 26 
     name rradius
     direction -0.999999 0.00118101 -0.000681858   
     length 3.48381   
     axis 180 30 90   XYZ
    dof rx
    limits (-10.0 170.0)
  end
  begin
     id 27 
     name rwrist
     direction -0.999999 0.000321823 -0.00132288   
     length 1.7419   
     axis 4.65056e-015 -90 -90   XYZ
    dof ry
    limits (-180.0 0.0)
  end
  begin
     id 28
     name rhand
     direction -1 -4.49022e-011 -1.31746e-026   
     length 1.34932   
     axis 8.4065e-015 -90 -90   XYZ
    dof rx rz
    limits (-90.0 90.0)
           (-45.0 45.0)
  end
  begin
     id 29
     name rfingers
     direction -1 -4.49178e-011 -2.63492e-026   
     length 1.08785   
     axis 1.6813e-014 -90 -90   XYZ
    dof rx
    limits (0.0 90.0)
  end
  begin
     id 30
     name rthumb
     direction -0.707107 -6.34713e-011 0.707107   
     length 1.56195   
     axis -90 -45 -2.85299e-015   XYZ
    dof rx rz
    limits (-45.0 45.0)
           (-45.0 45.0)
  end
:hierarchy
  begin
    root lhipjoint rhipjoint lowerback
    lhipjoint lfemur
    lfemur ltibia
    ltibia lfoot
    lfoot ltoes
    rhipjoint rfemur
    rfemur rtibia
    rtibia rfoot
    rfoot rtoes
    lowerback upperback
    upperback thorax
    thorax lowerneck lclavicle rclavicle
    lowerneck upperneck
    upperneck head
    lclavicle lhumerus
    lhumerus lradius
    lradius lwrist
    lwrist lhand lthumb
    lhand lfingers
    rclavicle rhumerus
    rhumerus rradius
    rradius rwrist
    rwrist rhand rthumb
    rhand rfingers
  end

#!OML:ASF X:\für Bonn\!DataBase\2005_08_10_Bjorn_Final\c3d\bjorn.ASF
:FULLY-SPECIFIED
:DEGREES
1
root 4.10829 17.865 -27.8345 11.237 -2.88108 364.263
lowerback 17.0191 1.16841 -0.647261
upperback 10.1908 1.42095 0.55684
thorax 1.30453 0.660923 0.730466
lowerneck -5.0352 -1.53355 0.48837
upperneck -21.0904 -2.99027 -4.95054
head -5.62502 -1.21554 -1.55002
rclavicle 1.74931e-014 3.97569e-015
rhumerus -16.5535 -31.3107 -82.551
rradius 20.509
rwrist 5.54261
rhand -10.7553 13.8671
rfingers 7.12502
rthumb 15.2562 -15.5503
lclavicle 1.74931e-014 3.97569e-015
lhumerus -19.0684 9.93236 92.493
lradius 30.3341
lwrist 14.9122
lhand -21.9037 -14.5236
lfingers 7.12502
lthumb 4.50174 15.4085
rfemur -46.3639 -2.23929 15.385
rtibia 64.6779
rfoot -17.8195 15.4389
rtoes 2.09118
lfemur -47.1114 6.77012 -22.6492
ltibia 64.0135
lfoot -13.7318 -2.552
ltoes -27.4887
2
root 4.12622 17.6338 -27.6356 10.5684 -2.93405 364.162
lowerback 17.2276 1.21358 -0.604501
upperback 10.29 1.48369 0.612393
thorax 1.30257 0.691849 0.752463
lowerneck -5.71162 -1.33856 0.123228
upperneck -21.9993 -2.68782 -4.60329
head -5.7879 -1.05241 -1.39811
rclavicle 7.15625e-015 -4.77083e-015
rhumerus -17.4976 -39.3594 -79.9608
rradius 17.0238
rwrist 10.7252
rhand -10.6616 13.2357
rfingers 7.12502
rthumb 15.3465 -16.1748
lclavicle 7.15625e-015 -4.77083e-015
lhumerus -19.3136 14.5968 91.6142
lradius 27.9901
lwrist 13.9626
lhand -21.1103 -13.1086
lfingers 7.12502
lthumb 5.26782 16.8059
rfemur -45.8081 -1.50845 15.3937
rtibia 66.7273
rfoot -20.9969 14.9764
rtoes 2.75418
lfemur -46.9688 6.65314 -22.539
ltibia 66.6977
lfoot -16.0444 -1.75259
ltoes -26.6333
3
root 4.14298 17.4242 -27.4331 10.0841 -2.97913 364.07
lowerback 17.2409 1.2541 -0.560924
upperback 10.3149 1.5422 0.649561
thorax 1.32163 0.721573 0.757891
lowerneck -6.416 -1.13846 -0.0927478
upperneck -22.7733 -2.38601 -4.38009
head -5.90999 -0.895396 -1.30941
rclavicle -3.18055e-015 1.19271e-014
rhumerus -20.0777 -49.2025 -75.6842
rradius 14.1431
rwrist 16.4173
rhand -10.3678 12.4807
rfingers 7.12502
rthumb 15.6295 -16.908
lclavicle -3.18055e-015 1.19271e-014
lhumerus -19.8454 19.0828 90.4194
lradius 25.8792
lwrist 13.4863
lhand -20.316 -11.1821
lfingers 7.12502
lthumb 6.03477 18.7119
rfemur -45.3515 -0.808142 15.42
rtibia 68.6072
rfoot -23.8013 14.3944
rtoes 2.33096
lfemur -46.8556 6.58625 -22.5282
ltibia 69.086
lfoot -18.0639 -0.898233
ltoes -25.4887
4
root 4.1583 17.2364 -27.2285 9.79318 -2.96468 363.944
lowerback 17.0303 1.27512 -0.470176
upperback 10.2488 1.58412 0.708934
thorax 1.35868 0.744902 0.765814
lowerneck -6.99152 -0.910631 -0.137825
upperneck -23.4915 -2.08133 -4.36985
head -6.04105 -0.736183 -1.31602
rclavicle -2.22639e-014 -5.56597e-015
rhumerus -26.1799 -59.8538 -67.9322
rradius 12.0273
rwrist 22.2919
rhand -10.4917 11.3371
rfingers 7.12502
rthumb 15.5101 -18.0608
lclavicle -2.22639e-014 -5.56597e-015
lhumerus -20.6981 23.3247 88.9636
lradius 24.0901
lwrist 13.7608
lhand -19.5441 -9.27857
lfingers 7.12502
lthumb 6.77994 20.5929
rfemur -45.0041 -0.20844 15.5284
rtibia 70.3099
rfoot -26.2357 13.716
rtoes 1.35406
lfemur -46.7933 6.49344 -22.5182
ltibia 71.1568
lfoot -19.8915 0.0231769
ltoes -25.5789
5
root 4.17314 17.0794 -27.0216 9.55133 -2.9415 363.894
lowerback 16.7166 1.29754 -0.397847
upperback 10.1612 1.62538 0.705851
thorax 1.42736 0.76919 0.720646
lowerneck -7.53061 -0.678037 -0.0362449
upperneck -24.1026 -1.77741 -4.41811
head -6.14607 -0.58747 -1.36537
rclavicle 1.59028e-015 9.54166e-015
rhumerus -39.316 -69.251 -53.4331
rradius 10.841
rwrist 27.4915
rhand -11.1334 9.77176
rfingers 7.12502
rthumb 14.892 -19.673
lclavicle 1.59028e-015 9.54166e-015
lhumerus -21.8393 27.3321 87.1791
lradius 22.6137
lwrist 14.4908
lhand -19.7522 -8.05416
lfingers 7.12502
lthumb 6.57899 21.8236
rfemur -44.5695 0.289875 15.5591
rtibia 71.7606
rfoot -28.3277 12.9621
rtoes 0.00656055
lfemur -46.5708 6.29351 -22.5585
ltibia 72.8773
lfoot -21.4963 1.18085
ltoes -27.2668
6
root 4.18619 16.9617 -26.8115 9.33033 -2.92214 363.869
lowerback 16.3844 1.32365 -0.380115
upperback 10.0481 1.66431 0.71385
thorax 1.47711 0.789678 0.718496
lowerneck -7.99023 -0.479099 0.282973
upperneck -24.6882 -1.57922 -4.73327
head -6.26092 -0.493155 -1.53486
rclavicle 9.54166e-015 -3.18055e-015
rhumerus -59.3882 -74.2003 -32.4646
rradius 10.5514
rwrist 29.7371
rhand -12.2844 7.97336
rfingers 7.12502
rthumb 13.7829 -21.5501
lclavicle 9.54166e-015 -3.18055e-015
lhumerus -23.3831 30.6671 85.2064
lradius 21.7142
lwrist 15.9112
lhand -20.8423 -7.00094
lfingers 7.12502
lthumb 5.5266 22.907
rfemur -43.9628 0.740621 15.5719
rtibia 72.9085
rfoot -30.1859 11.9871
rtoes -2.43709
lfemur -46.1407 6.11208 -22.6175
ltibia 74.2104
lfoot -22.8338 2.29603
ltoes -29.0782
7
root 4.19866 16.8818 -26.5978 9.11437 -2.924 363.813
lowerback 16.091 1.34909 -0.305856
upperback 9.8983 1.70925 0.705668
thorax 1.46993 0.816282 0.665581
lowerneck -8.28727 -0.298516 0.771603
upperneck -25.3096 -1.45121 -5.21259
head -6.41627 -0.436333 -1.78604
rclavicle -1.59028e-015 -8.74653e-015
rhumerus -70.2871 -74.4044 -21.3717
rradius 10.8849
rwrist 26.682
rhand -13.4112 6.08163
rfingers 7.12502
rthumb 12.6968 -23.5124
lclavicle -1.59028e-015 -8.74653e-015
lhumerus -25.3429 33.5654 82.859
lradius 21.3042
lwrist 17.656
lhand -21.2272 -5.34627
lfingers 7.12502
lthumb 5.15494 24.571
rfemur -43.1711 1.19526 15.615
rtibia 73.7165
rfoot -31.6922 11.1396
rtoes -4.58535
lfemur -45.4907 6.03962 -22.6454
ltibia 75.1488
lfoot -23.9484 3.36378
ltoes -31.187
8
root 4.20989 16.8325 -26.3826 8.91125 -2.91077 363.739
lowerback 15.841 1.36091 -0.163243
upperback 9.70605 1.74471 0.66463
thorax 1.39846 0.84217 0.539804
lowerneck -8.41285 -0.132049 1.30267
upperneck -25.9383 -1.34328 -5.65884
head -6.60199 -0.394115 -2.03529
rclavicle 9.93923e-015 -8.74653e-015
rhumerus -67.5384 -72.5133 -24.7038
rradius 11.8052
rwrist 19.2513
rhand -14.157 5.31851
rfingers 7.12502
rthumb 11.9777 -24.3188
lclavicle 9.93923e-015 -8.74653e-015
lhumerus -27.632 35.9455 80.1991
lradius 21.2963
lwrist 19.681
lhand -21.1802 -3.50031
lfingers 7.12502
lthumb 5.20034 26.4159
rfemur -42.2257 1.59189 15.6723
rtibia 74.2046
rfoot -32.7907 10.6113
rtoes -6.23132
lfemur -44.649 6.03805 -22.6298
ltibia 75.6871
lfoot -24.7658 4.29923
ltoes -33.2484
9
root 4.22027 16.8144 -26.1613 8.75053 -2.90926 363.665
lowerback 15.5378 1.37322 -0.0543065
upperback 9.44524 1.77685 0.653429
thorax 1.28042 0.863896 0.464939
lowerneck -8.32338 -0.0162405 1.65302
upperneck -26.5117 -1.26936 -5.93875
head -6.80543 -0.361814 -2.19869
rclavicle -5.56597e-015 7.95139e-016
rhumerus -59.1057 -69.0205 -34.3196
rradius 13.2538
rwrist 8.99939
rhand -14.6381 5.76049
rfingers 7.12502
rthumb 11.5138 -23.9033
lclavicle -5.56597e-015 7.95139e-016
lhumerus -30.1747 37.6616 77.5076
lradius 21.7088
lwrist 22.3014
lhand -21.3428 -1.55801
lfingers 7.12502
lthumb 5.04335 28.362
rfemur -41.1543 1.9552 15.7141
rtibia 74.3528
rfoot -33.542 10.2664
rtoes -7.55875
lfemur -43.6145 5.9694 -22.543
ltibia 75.8106
lfoot -25.4006 4.79951
ltoes -34.4838
10
root 4.22833 16.8296 -25.9356 8.65055 -2.92675 363.614
lowerback 15.132 1.38139 0.00521395
upperback 9.13406 1.79751 0.645262
thorax 1.16219 0.877563 0.424394
lowerneck -8.0692 0.0463796 1.73333
upperneck -27.0527 -1.19766 -5.90289
head -7.02619 -0.325739 -2.21119
rclavicle -3.97569e-016 -1.59028e-015
rhumerus -51.6152 -64.266 -43.4802
rradius 15.3155
rwrist -2.09683
rhand -15.0397 5.7434
rfingers 7.12502
rthumb 11.1265 -23.9416
lclavicle -3.97569e-016 -1.59028e-015
lhumerus -32.7538 38.5151 74.9352
lradius 22.5719
lwrist 25.8506
lhand -21.5685 0.558363
lfingers 7.12502
lthumb 4.8254 30.4834
rfemur -39.9721 2.27388 15.725
rtibia 74.1485
rfoot -33.8379 10.1571
rtoes -8.54966
lfemur -42.4091 5.86458 -22.4263
ltibia 75.5276
lfoot -25.886 4.92458
ltoes -34.9733
11
root 4.23518 16.8796 -25.7029 8.62967 -2.94395 363.551
lowerback 14.502 1.37515 0.0971487
upperback 8.86632 1.80213 0.609347
thorax 1.21206 0.884996 0.345301
lowerneck -7.89532 0.0856545 1.78739
upperneck -27.439 -1.12349 -5.74073
head -7.18293 -0.299367 -2.1751
rclavicle 3.57812e-015 1.19271e-014
rhumerus -47.2457 -59.5288 -49.7604
rradius 17.9106
rwrist -12.2902
rhand -15.7364 5.36368
rfingers 7.12502
rthumb 10.4544 -24.3564
lclavicle 3.57812e-015 1.19271e-014
lhumerus -35.0538 38.7848 72.5561
lradius 23.7489
lwrist 29.9458
lhand -22.1921 1.60349
lfingers 7.12502
lthumb 4.22327 31.5414
rfemur -38.6769 2.56469 15.7416
rtibia 73.5674
rfoot -33.8505 10.0891
rtoes -9.65278
lfemur -41.0953 5.73494 -22.267
ltibia 74.8842
lfoot -26.1468 4.76513
ltoes -35.2933
12
root 4.24156 16.9623 -25.4627 8.71991 -2.97388 363.464
lowerback 13.6459 1.36564 0.190962
upperback 8.57053 1.80149 0.602402
thorax 1.3537 0.889016 0.301356
lowerneck -7.76284 0.0938126 1.80495
upperneck -27.5642 -1.08756 -5.60506
head -7.24602 -0.29084 -2.13592
rclavicle 3.18055e-015 -9.54166e-015
rhumerus -45.246 -55.2225 -53.6436
rradius 20.8934
rwrist -20.7918
rhand -16.9415 4.78401
rfingers 7.12502
rthumb 9.29176 -24.9912
lclavicle 3.18055e-015 -9.54166e-015
lhumerus -37.2661 38.6404 70.3305
lradius 25.1675
lwrist 33.9862
lhand -23.0713 1.72774
lfingers 7.12502
lthumb 3.37429 31.6808
rfemur -37.3307 2.79761 15.7557
rtibia 72.6234
rfoot -33.5595 10.203
rtoes -10.4508
lfemur -39.7389 5.62501 -22.081
ltibia 73.9285
lfoot -26.1964 4.53176
ltoes -35.7197
